# xmcd CD database file
#
# Track frame offsets:
#	150
#	21412
#	45357
#	68692
#	90620
#	110797
#	126280
#	144695
#	159037
#	175535
#
# Disc length: 2625 seconds
#
# Revision: 0
# Processed by: cddbd v1.5.1PL2 Copyright (c) Steve Scherf et al.
# Submitted via: CDex 1.51
#
DISCID=7d0a3f0a
DTITLE=CURIO - Glitters
DYEAR=1900
DGENRE=Pop
TTITLE0=夜明けの門
TTITLE1=GO Around The World
TTITLE2=Clover
TTITLE3=Smoke
TTITLE4=N-edge
TTITLE5=リビング
TTITLE6=Dear My Friend
TTITLE7=ginger
TTITLE8=Blanket
TTITLE9=butterfly
EXTD=
EXTT0=
EXTT1=
EXTT2=
EXTT3=
EXTT4=
EXTT5=
EXTT6=
EXTT7=
EXTT8=
EXTT9=
PLAYORDER=
